<?xml version="1.0" encoding="UTF-8"?>
<svg width="322px" height="99px" viewBox="0 0 322 99" version="1.1" xmlns="http://www.w3.org/2000/svg" xmlns:xlink="http://www.w3.org/1999/xlink">
    <!-- Generator: Sketch 52.3 (67297) - http://www.bohemiancoding.com/sketch -->
    <title>jamstack.paris</title>
    <desc>Created with Sketch.</desc>
    <defs>
        <linearGradient x1="0.758%" y1="0%" x2="100%" y2="100%" id="linearGradient-1">
            <stop stop-color="#20C6B7" offset="0%"></stop>
            <stop stop-color="#4D9ABF" offset="100%"></stop>
        </linearGradient>
    </defs>
    <g id="jamstack.paris" stroke="none" stroke-width="1" fill="none" fill-rule="evenodd">
        <g id="jamstack-full-logo" transform="translate(15.000000, 16.000000)">
            <path d="M16.172881,0.574766355 L24.2574091,0.574766355 L24.2574091,28.2730307 C24.2574091,32.1778122 23.10997,35.2751332 20.8150571,37.5650868 C18.5201442,39.8550403 15.630121,41 12.1449007,41 C8.37400653,41 5.38876013,39.9782034 3.18907189,37.9345794 C0.989383649,35.8909555 -0.0723547054,32.8803048 0.00382497343,28.9025367 L0.0895266845,28.7383178 L8.00265131,28.7383178 C8.00265131,30.8366816 8.38830516,32.3693766 9.1596244,33.3364486 C9.93094366,34.3035207 10.9260258,34.7870494 12.1449007,34.7870494 C13.2495061,34.7870494 14.1969766,34.2122888 14.9873408,33.0627503 C15.7777049,31.9132119 16.172881,30.3166546 16.172881,28.2730307 L16.172881,0.574766355 Z M46.7452487,31.9679573 L35.7754298,31.9679573 L33.5471853,40.4252336 L25.3483884,40.4252336 L37.0609554,0.574766355 L45.5168576,0.574766355 L57.2008574,40.4252336 L49.0020605,40.4252336 L46.7452487,31.9679573 Z M37.4323295,25.7002671 L45.088349,25.7002671 L41.346041,11.6048064 L41.1746375,11.6048064 L37.4323295,25.7002671 Z M68.9759833,0.574766355 L76.4320321,29.8331108 L76.6034355,29.8331108 L84.1451861,0.574766355 L94.743631,0.574766355 L94.743631,40.4252336 L86.6591029,40.4252336 L86.6591029,28.8477971 L87.3447167,13.3564753 L87.1733132,13.3291055 L79.2316213,40.4252336 L73.8324135,40.4252336 L65.9764234,13.548064 L65.8050199,13.5754339 L66.5192009,28.8477971 L66.5192009,40.4252336 L58.4346728,40.4252336 L58.4346728,0.574766355 L68.9759833,0.574766355 Z M126.572957,30.8731642 C126.572957,28.3733743 125.615964,26.3753969 123.70195,24.8791723 C121.787935,23.3829476 118.469408,22.0144699 113.746268,20.7736983 C109.004083,19.5511733 105.533198,18.1598877 103.33351,16.5997997 C101.133822,15.0397119 100.033994,12.7634773 100.033994,9.77102804 C100.033994,6.79682536 101.329029,4.42479745 103.919138,2.65487317 C106.509247,0.884948868 109.813491,0 113.831969,0 C117.888537,0 121.202304,1.08565893 123.773368,3.25700934 C126.344432,5.42835977 127.591856,8.22005415 127.515675,11.6321762 L127.458542,11.7963952 L126.144449,11.7963952 C126.144449,8.82219253 125.001771,6.35893278 122.71638,4.40654206 C120.43099,2.45415134 117.469549,1.47797063 113.831969,1.47797063 C110.061075,1.47797063 107.075829,2.28537244 104.876141,3.90020027 C102.676452,5.51502811 101.576625,7.45370475 101.576625,9.71628839 C101.576625,11.978872 102.486006,13.858248 104.304796,15.3544727 C106.123586,16.8506973 109.413546,18.1826822 114.174776,19.3504673 C118.783647,20.5182524 122.264054,21.9460307 124.616102,23.6338451 C126.968149,25.3216596 128.144155,27.7164954 128.144155,30.8184245 C128.144155,33.9750937 126.801508,36.4611614 124.116175,38.2767023 C121.430841,40.0922432 118.069463,41 114.03194,41 C109.861103,41 106.271189,40.0648736 103.262092,38.1945929 C100.252994,36.3243119 98.7960799,33.3820851 98.8913045,29.3678237 L98.948439,29.2036048 L100.233965,29.2036048 C100.233965,32.81644 101.624223,35.4393554 104.404781,37.0724299 C107.185339,38.7055044 110.39436,39.5220294 114.03194,39.5220294 C117.688565,39.5220294 120.692856,38.7191892 123.044903,37.1134846 C125.39695,35.5077801 126.572957,33.4276941 126.572957,30.8731642 Z M157.977787,6.13190261 C157.977787,6.33128343 157.899749,6.51404646 157.743672,6.68019715 C157.587595,6.84634784 157.405506,6.92942194 157.197402,6.92942194 L145.127455,6.92942194 L145.127455,39.6775592 C145.127455,39.8769401 145.040746,40.0513957 144.867325,40.2009313 C144.693906,40.350467 144.503148,40.4252336 144.295044,40.4252336 C144.08694,40.4252336 143.896181,40.3587744 143.722762,40.2258539 C143.549342,40.0929332 143.462634,39.9101702 143.462634,39.6775592 L143.462634,6.92942194 L131.34066,6.92942194 C131.132556,6.92942194 130.950468,6.84634784 130.79439,6.68019715 C130.638313,6.51404646 130.560275,6.33128343 130.560275,6.13190261 C130.560275,5.93252178 130.629642,5.74145134 130.768377,5.55868559 C130.907114,5.37591983 131.097873,5.28453833 131.34066,5.28453833 L157.197402,5.28453833 C157.44019,5.28453833 157.630949,5.37591983 157.769685,5.55868559 C157.908421,5.74145134 157.977787,5.93252178 157.977787,6.13190261 Z M181.588925,28.5193591 L161.249053,28.5193591 L156.62116,40.4252336 L154.935693,40.4252336 L170.47627,0.574766355 L172.361707,0.574766355 L187.930852,40.4252336 L186.245385,40.4252336 L181.588925,28.5193591 Z M161.820398,27.0413886 L181.017581,27.0413886 L172.304574,4.59813084 L171.504691,2.35380507 L171.333288,2.35380507 L170.561972,4.59813084 L161.820398,27.0413886 Z M218.365808,28.2182911 L218.422942,28.38251 C218.499121,32.4697579 217.208848,35.5944485 214.552081,37.7566756 C211.895315,39.9189027 208.395864,41 204.053622,41 C199.501886,41 195.854838,39.389758 193.11237,36.1692256 C190.369902,32.9486933 188.998688,28.7200974 188.998688,23.4833111 L188.998688,17.5166889 C188.998688,12.2981493 190.369902,8.07411494 193.11237,4.84445929 C195.854838,1.61480362 199.501886,0 204.053622,0 C208.395864,0 211.895315,1.08565893 214.552081,3.25700934 C217.208848,5.42835977 218.499121,8.53024241 218.422942,12.5627503 L218.365808,12.7269692 L217.051715,12.7269692 C217.051715,9.13238078 215.88523,6.35893278 213.552228,4.40654206 C211.219225,2.45415134 208.053055,1.47797063 204.053622,1.47797063 C199.997054,1.47797063 196.730899,2.94680329 194.25506,5.88451269 C191.779221,8.82222209 190.541319,12.681329 190.541319,17.4619492 L190.541319,23.4833111 C190.541319,28.3186713 191.779221,32.2005862 194.25506,35.1291723 C196.730899,38.0577583 199.997054,39.5220294 204.053622,39.5220294 C208.053055,39.5220294 211.219225,38.5823414 213.552228,36.7029373 C215.88523,34.8235331 217.051715,31.995346 217.051715,28.2182911 L218.365808,28.2182911 Z M232.717409,20.9652871 L226.346915,20.9652871 L226.346915,40.4252336 L224.804284,40.4252336 L224.804284,0.574766355 L226.346915,0.574766355 L226.346915,19.5146863 L233.145918,19.5146863 L250.800469,0.574766355 L252.628773,0.574766355 L252.685907,0.711615488 L234.431443,20.4452603 L254,40.2610147 L253.914299,40.4252336 L252.114562,40.4252336 L232.717409,20.9652871 Z" id="JAMSTACK" fill="#4A4A4A" fill-rule="nonzero"></path>
            <path d="M158,0.999999997 C158,1.26666799 157.922414,1.499999 157.767242,1.7 C157.612068,1.900001 157.431035,2 157.224138,2 L131.775862,2 C131.568965,2 131.387932,1.900001 131.232758,1.7 C131.077586,1.499999 131,1.26666799 131,0.999999997 C131,0.733332001 131.077586,0.500000995 131.232758,0.299999999 C131.387932,0.099999 131.568965,0 131.775862,0 L157.224138,0 C157.431035,0 157.612068,0.099999 157.767242,0.299999999 C157.922414,0.500000995 158,0.733332001 158,0.999999997 Z" id="Path" fill="url(#linearGradient-1)"></path>
        </g>
        <g id="noun_Paris_47170" transform="translate(243.000000, -1.000000)">
            <rect id="Rectangle" fill="#4A4A4A" x="31" y="92" width="39" height="3"></rect>
            <rect id="Rectangle" x="0" y="0" width="100" height="100"></rect>
            <path d="M35,90 L34,90 L34,91 L41,91 C41,85.477 45.253,81 50.5,81 C55.747,81 60,85.477 60,91 L67,91 L67,90 L66,90 L60,77 L41,77 L35,90 Z" id="Path" fill="#4A4A4A"></path>
            <polygon id="Path" fill="#4A4A4A" points="53.539 72.001 54 73 58.154 73.001 57.693 72.002 55.245 62.001 45.755 61.999 43.308 71.999 42.846 72.999 47 73 47.462 72 48.5 64 52.5 64"></polygon>
            <polygon id="Path" fill="#4A4A4A" points="60 76 41 76 41 75 40 74 61 74 60 75"></polygon>
            <polygon id="Path" fill="#4A4A4A" points="55 61 46 61 46 60 45 59 56 59 55 60"></polygon>
            <polygon id="Path" fill="#4A4A4A" points="52.5 38 54.021 57 54.266 58 46.734 58 46.979 56.999 48.5 38 49 18 52 18"></polygon>
            <polygon id="Path" fill="#4A4A4A" points="53 17 52 18 49 18 48 17 48 16 53 16"></polygon>
            <rect id="Rectangle" fill="#4A4A4A" x="48.5" y="14" width="4" height="1"></rect>
            <path d="M52.5,14 C52.5,12.895 51.605,12 50.5,12 C49.395,12 48.5,12.895 48.5,14 L52.5,14 Z" id="Path" fill="#4A4A4A"></path>
            <rect id="Rectangle" fill="#4A4A4A" x="50" y="6" width="1" height="5"></rect>
        </g>
        <text id=".paris" font-family="IBMPlexMono-Medium, IBM Plex Mono" font-size="32" font-weight="400" fill="#4A4A4A">
            <tspan x="153.4" y="90">.paris</tspan>
        </text>
    </g>
</svg>